<svg xmlns="http://www.w3.org/2000/svg" xmlns:xlink="http://www.w3.org/1999/xlink" width="500" zoomAndPan="magnify" viewBox="0 0 375 374.999991" height="500" preserveAspectRatio="xMidYMid meet" version="1.0"><defs><g/><clipPath id="d115fa4aa8"><path d="M 107.144531 130.535156 L 206 130.535156 L 206 180 L 107.144531 180 Z M 107.144531 130.535156 " clip-rule="nonzero"/></clipPath><clipPath id="f9dfe28c99"><path d="M 150 130.535156 L 251.144531 130.535156 L 251.144531 180 L 150 180 Z M 150 130.535156 " clip-rule="nonzero"/></clipPath></defs><g clip-path="url(#d115fa4aa8)"><path fill="#ff640d" d="M 125.472656 179.628906 L 107.144531 179.628906 L 156.144531 130.628906 L 205.148438 179.628906 L 186.820312 179.628906 L 156.144531 148.957031 Z M 138.117188 138.910156 L 125.15625 138.910156 L 125.15625 154.332031 L 138.117188 141.816406 Z M 138.117188 138.910156 " fill-opacity="1" fill-rule="nonzero"/></g><g clip-path="url(#f9dfe28c99)"><path fill="#000000" d="M 192.277344 159.203125 L 183.117188 150.035156 L 202.332031 130.824219 L 251.332031 179.824219 L 233 179.824219 L 202.332031 149.152344 Z M 154.960938 167.871094 L 154.960938 163.808594 L 150.902344 163.808594 L 150.902344 167.871094 Z M 161.707031 167.871094 L 161.707031 163.808594 L 157.644531 163.808594 L 157.644531 167.871094 Z M 154.960938 174.527344 L 154.960938 170.464844 L 150.902344 170.464844 L 150.902344 174.527344 Z M 161.707031 174.527344 L 161.707031 170.464844 L 157.644531 170.464844 L 157.644531 174.527344 Z M 161.707031 174.527344 " fill-opacity="1" fill-rule="nonzero"/></g><g fill="#ff640d" fill-opacity="1"><g transform="translate(36.285551, 230.515437)"><g><path d="M 18.515625 -34.234375 C 30.492188 -34.234375 36.484375 -28.53125 36.484375 -17.125 C 36.484375 -5.707031 30.492188 0 18.515625 0 L 3.6875 0 L 3.6875 -34.234375 Z M 14.6875 -8.21875 L 18.3125 -8.21875 C 22.925781 -8.21875 25.234375 -10.6875 25.234375 -15.625 L 25.234375 -18.609375 C 25.234375 -23.554688 22.925781 -26.03125 18.3125 -26.03125 L 14.6875 -26.03125 Z M 14.6875 -8.21875 "/></g></g></g><g fill="#ff640d" fill-opacity="1"><g transform="translate(72.160931, 230.515437)"><g><path d="M 28.171875 0 L 13.78125 -16.625 L 13.78125 0 L 3.6875 0 L 3.6875 -34.234375 L 13.28125 -34.234375 L 27.671875 -17.375 L 27.671875 -34.234375 L 37.765625 -34.234375 L 37.765625 0 Z M 28.171875 0 "/></g></g></g><g fill="#ff640d" fill-opacity="1"><g transform="translate(110.773015, 230.515437)"><g><path d="M 33.09375 0 L 33.09375 -12.34375 C 33.09375 -13.863281 33.148438 -15.425781 33.265625 -17.03125 C 33.378906 -18.644531 33.503906 -20 33.640625 -21.09375 C 33.773438 -22.195312 33.859375 -22.894531 33.890625 -23.1875 L 33.6875 -23.1875 L 27.375 0 L 18.765625 0 L 12.390625 -23.140625 L 12.1875 -23.140625 C 12.226562 -22.835938 12.320312 -22.144531 12.46875 -21.0625 C 12.613281 -19.988281 12.753906 -18.644531 12.890625 -17.03125 C 13.023438 -15.425781 13.09375 -13.863281 13.09375 -12.34375 L 13.09375 0 L 2.984375 0 L 2.984375 -34.234375 L 18.515625 -34.234375 L 23.6875 -14.484375 L 23.890625 -14.484375 L 29.015625 -34.234375 L 44 -34.234375 L 44 0 Z M 33.09375 0 "/></g></g></g><g fill="#000000" fill-opacity="1"><g transform="translate(166.76053, 229.206012)"><g><path d="M 3.375 -31.40625 L 30.546875 -31.40625 L 30.546875 -23.875 L 13.46875 -23.875 L 13.46875 -19.546875 L 28.078125 -19.546875 L 28.078125 -12.328125 L 13.46875 -12.328125 L 13.46875 -7.53125 L 30.859375 -7.53125 L 30.859375 0 L 3.375 0 Z M 3.375 -31.40625 "/></g></g></g><g fill="#000000" fill-opacity="1"><g transform="translate(197.117797, 229.206012)"><g><path d="M 16.578125 -31.953125 C 20.585938 -31.953125 23.882812 -31.140625 26.46875 -29.515625 C 29.0625 -27.890625 30.390625 -25.476562 30.453125 -22.28125 L 30.453125 -21.734375 L 21 -21.734375 L 21 -21.921875 C 21 -22.828125 20.664062 -23.582031 20 -24.1875 C 19.332031 -24.800781 18.3125 -25.109375 16.9375 -25.109375 C 15.59375 -25.109375 14.5625 -24.910156 13.84375 -24.515625 C 13.132812 -24.117188 12.78125 -23.632812 12.78125 -23.0625 C 12.78125 -22.238281 13.265625 -21.628906 14.234375 -21.234375 C 15.210938 -20.835938 16.785156 -20.425781 18.953125 -20 C 21.472656 -19.476562 23.546875 -18.9375 25.171875 -18.375 C 26.804688 -17.8125 28.234375 -16.890625 29.453125 -15.609375 C 30.671875 -14.335938 31.289062 -12.601562 31.3125 -10.40625 C 31.3125 -6.695312 30.054688 -3.941406 27.546875 -2.140625 C 25.035156 -0.347656 21.679688 0.546875 17.484375 0.546875 C 12.585938 0.546875 8.773438 -0.273438 6.046875 -1.921875 C 3.328125 -3.566406 1.96875 -6.472656 1.96875 -10.640625 L 11.5 -10.640625 C 11.5 -9.054688 11.910156 -8 12.734375 -7.46875 C 13.554688 -6.9375 14.835938 -6.671875 16.578125 -6.671875 C 17.847656 -6.671875 18.898438 -6.804688 19.734375 -7.078125 C 20.578125 -7.347656 21 -7.910156 21 -8.765625 C 21 -9.523438 20.535156 -10.09375 19.609375 -10.46875 C 18.679688 -10.851562 17.164062 -11.257812 15.0625 -11.6875 C 12.507812 -12.238281 10.394531 -12.8125 8.71875 -13.40625 C 7.039062 -14 5.578125 -14.976562 4.328125 -16.34375 C 3.085938 -17.71875 2.46875 -19.578125 2.46875 -21.921875 C 2.46875 -25.359375 3.796875 -27.890625 6.453125 -29.515625 C 9.117188 -31.140625 12.492188 -31.953125 16.578125 -31.953125 Z M 16.578125 -31.953125 "/></g></g></g><g fill="#000000" fill-opacity="1"><g transform="translate(227.475064, 229.206012)"><g><path d="M 21.453125 -23.375 L 21.453125 0 L 11.375 0 L 11.375 -23.375 L 1.046875 -23.375 L 1.046875 -31.40625 L 31.734375 -31.40625 L 31.734375 -23.375 Z M 21.453125 -23.375 "/></g></g></g><g fill="#000000" fill-opacity="1"><g transform="translate(257.832328, 229.206012)"><g><path d="M 24.421875 0 L 23.109375 -4.421875 L 12.09375 -4.421875 L 10.78125 0 L 0.453125 0 L 11.921875 -31.40625 L 23.65625 -31.40625 L 35.109375 0 Z M 14.203125 -11.453125 L 21 -11.453125 L 17.71875 -22.640625 L 17.53125 -22.640625 Z M 14.203125 -11.453125 "/></g></g></g><g fill="#000000" fill-opacity="1"><g transform="translate(290.746023, 229.206012)"><g><path d="M 21.453125 -23.375 L 21.453125 0 L 11.375 0 L 11.375 -23.375 L 1.046875 -23.375 L 1.046875 -31.40625 L 31.734375 -31.40625 L 31.734375 -23.375 Z M 21.453125 -23.375 "/></g></g></g><g fill="#000000" fill-opacity="1"><g transform="translate(321.103293, 229.206012)"><g><path d="M 3.375 -31.40625 L 30.546875 -31.40625 L 30.546875 -23.875 L 13.46875 -23.875 L 13.46875 -19.546875 L 28.078125 -19.546875 L 28.078125 -12.328125 L 13.46875 -12.328125 L 13.46875 -7.53125 L 30.859375 -7.53125 L 30.859375 0 L 3.375 0 Z M 3.375 -31.40625 "/></g></g></g></svg>